<?xml version="1.0" standalone="no"?><!DOCTYPE svg PUBLIC "-//W3C//DTD SVG 1.1//EN"
  "http://www.w3.org/Graphics/SVG/1.1/DTD/svg11.dtd">
<svg t="1684479026151" class="icon" viewBox="0 0 1024 1024" version="1.1" xmlns="http://www.w3.org/2000/svg" p-id="4626"
     xmlns:xlink="http://www.w3.org/1999/xlink" width="200" height="200">
  <path
    d="M512 947.106726c-239.918231 0-435.106726-195.188494-435.106726-435.106726S272.081769 76.893274 512 76.893274s435.106726 195.188494 435.106726 435.106726S751.918231 947.106726 512 947.106726zM512 110.36255c-221.458811 0-401.636427 180.177616-401.636427 401.636427s180.177616 401.636427 401.636427 401.636427 401.636427-180.177616 401.636427-401.636427S733.458811 110.36255 512 110.36255z"
    fill="" p-id="4627"></path>
  <path
    d="M520.383948 789.600459 486.614843 789.600459 486.614843 555.263339 252.277724 555.263339 252.277724 521.494235 486.614843 521.494235 486.614843 288.180422 520.383948 288.180422 520.383948 521.494235 754.721067 521.494235 754.721067 555.263339 520.383948 555.263339Z"
    fill="" p-id="4628"></path>
</svg>
