<?xml version="1.0" standalone="no"?><!DOCTYPE svg PUBLIC "-//W3C//DTD SVG 1.1//EN"
  "http://www.w3.org/Graphics/SVG/1.1/DTD/svg11.dtd">
<svg t="1684479499194" class="icon" viewBox="0 0 1024 1024" version="1.1" xmlns="http://www.w3.org/2000/svg"
     p-id="11858" xmlns:xlink="http://www.w3.org/1999/xlink" width="200" height="200">
  <path
    d="M654.399555 656.769148H215.040928a36.607886 36.607886 0 1 1 0-73.215772h439.358627a36.607886 36.607886 0 0 1 0 73.215772zM434.688242 437.121834H215.104928a36.607886 36.607886 0 0 1 0-73.279771h219.647313a36.671885 36.671885 0 0 1 0 73.279771z m151.039528 0a36.607886 36.607886 0 0 1-25.85592-62.527805L923.710713 10.755166a36.607886 36.607886 0 0 1 51.839838 51.711839L611.583689 426.433867a36.223887 36.223887 0 0 1-25.919919 10.751967z m215.103327 585.790169H141.825157A109.951656 109.951656 0 0 1 32.0015 913.088347V180.802635A109.951656 109.951656 0 0 1 141.825157 71.042978h512.574398a36.607886 36.607886 0 0 1 0 73.215771H141.825157a36.671885 36.671885 0 0 0-36.607886 36.607886v732.285711c0 20.159937 16.447949 36.607886 36.607886 36.607886h659.06994a36.607886 36.607886 0 0 0 36.607886-36.607886V327.234177a36.607886 36.607886 0 1 1 73.215771 0v585.85417a109.951656 109.951656 0 0 1-109.887657 109.823656z"
    fill="" p-id="11859"></path>
</svg>
