<?xml version="1.0" standalone="no"?><!DOCTYPE svg PUBLIC "-//W3C//DTD SVG 1.1//EN"
  "http://www.w3.org/Graphics/SVG/1.1/DTD/svg11.dtd">
<svg t="1673410110896" class="icon" viewBox="0 0 1024 1024" version="1.1" xmlns="http://www.w3.org/2000/svg"
     p-id="13923" xmlns:xlink="http://www.w3.org/1999/xlink" width="200" height="200">
  <path
    d="M640.652705 370.8679a276.976877 276.976877 0 1 0 276.976877 276.944037 277.272442 277.272442 0 0 0-276.976877-276.944037z"
    fill="" p-id="13924"></path>
  <path
    d="M513.592765 67.618614c-252.576377 0-458.026619 205.483083-458.026619 458.059459s205.450242 458.026619 458.026619 458.026619S971.652224 778.320131 971.652224 525.678073 766.169141 67.618614 513.592765 67.618614z m0 845.64318a387.51804 387.51804 0 1 1 387.51804-387.51804 388.043488 388.043488 0 0 1-387.51804 387.51804z"
    fill="" p-id="13925"></path>
  <path
    d="M633.230749 706.071005a39.408614 39.408614 0 0 1-28.012956-11.625541l-122.232385-122.199545a30.705879 30.705879 0 0 1-9.031141-21.8061v-200.786889a39.638498 39.638498 0 0 1 79.276996 0v180.622815l108.012443 108.045284a39.638498 39.638498 0 0 1-28.012957 67.651454z"
    fill="" p-id="13926"></path>
</svg>
